%
M48
M72
T01C0.0315
T02C0.0320
T03C0.0354
T04C0.0400
T05C0.0433
%
T01
X23291Y10950
X29891Y8850
T02
X28291Y12450
X27291Y12450
X26291Y12450
X25291Y12450
X24291Y12450
X23291Y12450
X22291Y12450
X21291Y12450
X20291Y12450
X19291Y12450
X18291Y12450
X17291Y12450
X16291Y12450
X15291Y12450
X14291Y12450
X13291Y12450
X12291Y12450
X11291Y12450
X10291Y12450
X9291Y12450
X5191Y13650
X4191Y13650
X3191Y13650
X2191Y13650
X9291Y18450
X10291Y18450
X11291Y18450
X12291Y18450
X13291Y18450
X14291Y18450
X15291Y18450
X16291Y18450
X17291Y18450
X18291Y18450
X19291Y18450
X20291Y18450
X21291Y18450
X22291Y18450
X23291Y18450
X24291Y18450
X25291Y18450
X26291Y18450
X27291Y18450
X28291Y18450
X19941Y9450
X18041Y9450
X16991Y28150
X16991Y29150
X19991Y29150
X19991Y28150
T03
X20891Y26950
X20891Y24950
X22491Y22850
X24191Y27150
X25991Y28150
X24191Y29850
X29291Y28150
X27191Y22850
X28091Y15450
X30191Y15450
X23791Y4250
X17191Y5950
X14991Y4250
X13691Y3550
X14691Y5950
X10791Y3550
X4791Y6150
X6491Y11150
X4791Y11750
X14291Y11150
X17291Y13850
X17291Y16850
X14591Y23250
X14991Y26850
X17991Y26850
X8291Y23250
T04
X2791Y3650
X3791Y3650
X3791Y4650
X3791Y5650
X3791Y6650
X3791Y7650
X2791Y7650
X2791Y6650
X2791Y5650
X2791Y4650
X9291Y4950
X10291Y4950
X11291Y4950
X12291Y4950
X13291Y4950
X13291Y5950
X12291Y5950
X11291Y5950
X10291Y5950
X9291Y5950
X5091Y17450
X5091Y18450
X5091Y19450
X5091Y20450
X5091Y21450
X4091Y21450
X4091Y20450
X4091Y19450
X4091Y18450
X4091Y17450
X9291Y24950
X10291Y24950
X11291Y24950
X12291Y24950
X13291Y24950
X13291Y25950
X12291Y25950
X11291Y25950
X10291Y25950
X9291Y25950
X16991Y25750
X17991Y25750
X18991Y25750
X18991Y24750
X17991Y24750
X16991Y24750
X22291Y24950
X23291Y24950
X24291Y24950
X25291Y24950
X26291Y24950
X26291Y25950
X25291Y25950
X24291Y25950
X23291Y25950
X22291Y25950
X28291Y25950
X28291Y26950
X28291Y24950
X28291Y23950
X28291Y7450
X28291Y6450
X28291Y5450
X28291Y4450
X26291Y5450
X26291Y6450
X25291Y6450
X25291Y5450
X24291Y5450
X24291Y6450
X23291Y6450
X23291Y5450
X22291Y5450
X22291Y6450
T05
X6291Y3650
X6291Y1150
M30
