G75*
G70*
%OFA0B0*%
%FSLAX24Y24*%
%IPPOS*%
%LPD*%
%AMOC8*
5,1,8,0,0,1.08239X$1,22.5*
%
%ADD10C,0.0060*%
%ADD11R,0.0750X0.0600*%
%ADD12C,0.0160*%
%ADD13C,0.0050*%
%ADD14C,0.0010*%
D10*
X002541Y003150D02*
X002291Y003400D01*
X002291Y003900D01*
X002541Y004150D01*
X002291Y004400D01*
X002291Y004900D01*
X002541Y005150D01*
X002291Y005400D01*
X002291Y005900D01*
X002541Y006150D01*
X002291Y006400D01*
X002291Y006900D01*
X002541Y007150D01*
X002291Y007400D01*
X002291Y007900D01*
X002541Y008150D01*
X004041Y008150D01*
X004291Y007900D01*
X004291Y007400D01*
X004041Y007150D01*
X004291Y006900D01*
X004291Y006400D01*
X004041Y006150D01*
X004291Y005900D01*
X004291Y005400D01*
X004041Y005150D01*
X004291Y004900D01*
X004291Y004400D01*
X004041Y004150D01*
X004291Y003900D01*
X004291Y003400D01*
X004041Y003150D01*
X002541Y003150D01*
X008791Y004700D02*
X009041Y004450D01*
X009541Y004450D01*
X009791Y004700D01*
X010041Y004450D01*
X010541Y004450D01*
X010791Y004700D01*
X011041Y004450D01*
X011541Y004450D01*
X011791Y004700D01*
X012041Y004450D01*
X012541Y004450D01*
X012791Y004700D01*
X013041Y004450D01*
X013541Y004450D01*
X013791Y004700D01*
X013791Y006200D01*
X013541Y006450D01*
X013041Y006450D01*
X012791Y006200D01*
X012541Y006450D01*
X012041Y006450D01*
X011791Y006200D01*
X011541Y006450D01*
X011041Y006450D01*
X010791Y006200D01*
X010541Y006450D01*
X010041Y006450D01*
X009791Y006200D01*
X009541Y006450D01*
X009041Y006450D01*
X008791Y006200D01*
X008791Y004700D01*
X008391Y012850D02*
X029191Y012850D01*
X029191Y018050D01*
X008391Y018050D01*
X008391Y015950D01*
X008435Y015948D01*
X008478Y015942D01*
X008520Y015933D01*
X008562Y015920D01*
X008602Y015903D01*
X008641Y015883D01*
X008678Y015860D01*
X008712Y015833D01*
X008745Y015804D01*
X008774Y015771D01*
X008801Y015737D01*
X008824Y015700D01*
X008844Y015661D01*
X008861Y015621D01*
X008874Y015579D01*
X008883Y015537D01*
X008889Y015494D01*
X008891Y015450D01*
X008889Y015406D01*
X008883Y015363D01*
X008874Y015321D01*
X008861Y015279D01*
X008844Y015239D01*
X008824Y015200D01*
X008801Y015163D01*
X008774Y015129D01*
X008745Y015096D01*
X008712Y015067D01*
X008678Y015040D01*
X008641Y015017D01*
X008602Y014997D01*
X008562Y014980D01*
X008520Y014967D01*
X008478Y014958D01*
X008435Y014952D01*
X008391Y014950D01*
X008391Y012850D01*
X005341Y016950D02*
X005591Y017200D01*
X005591Y017700D01*
X005341Y017950D01*
X005591Y018200D01*
X005591Y018700D01*
X005341Y018950D01*
X005591Y019200D01*
X005591Y019700D01*
X005341Y019950D01*
X005591Y020200D01*
X005591Y020700D01*
X005341Y020950D01*
X005591Y021200D01*
X005591Y021700D01*
X005341Y021950D01*
X003841Y021950D01*
X003591Y021700D01*
X003591Y021200D01*
X003841Y020950D01*
X003591Y020700D01*
X003591Y020200D01*
X003841Y019950D01*
X003591Y019700D01*
X003591Y019200D01*
X003841Y018950D01*
X003591Y018700D01*
X003591Y018200D01*
X003841Y017950D01*
X003591Y017700D01*
X003591Y017200D01*
X003841Y016950D01*
X005341Y016950D01*
X009041Y024450D02*
X009541Y024450D01*
X009791Y024700D01*
X010041Y024450D01*
X010541Y024450D01*
X010791Y024700D01*
X011041Y024450D01*
X011541Y024450D01*
X011791Y024700D01*
X012041Y024450D01*
X012541Y024450D01*
X012791Y024700D01*
X013041Y024450D01*
X013541Y024450D01*
X013791Y024700D01*
X013791Y026200D01*
X013541Y026450D01*
X013041Y026450D01*
X012791Y026200D01*
X012541Y026450D01*
X012041Y026450D01*
X011791Y026200D01*
X011541Y026450D01*
X011041Y026450D01*
X010791Y026200D01*
X010541Y026450D01*
X010041Y026450D01*
X009791Y026200D01*
X009541Y026450D01*
X009041Y026450D01*
X008791Y026200D01*
X008791Y024700D01*
X009041Y024450D01*
X016491Y024500D02*
X016741Y024250D01*
X017241Y024250D01*
X017491Y024500D01*
X017741Y024250D01*
X018241Y024250D01*
X018491Y024500D01*
X018741Y024250D01*
X019241Y024250D01*
X019491Y024500D01*
X019491Y026000D01*
X019241Y026250D01*
X018741Y026250D01*
X018491Y026000D01*
X018241Y026250D01*
X017741Y026250D01*
X017491Y026000D01*
X017241Y026250D01*
X016741Y026250D01*
X016491Y026000D01*
X016491Y024500D01*
X016491Y027350D02*
X017741Y027350D01*
X017741Y027600D01*
X019241Y027600D01*
X019241Y027350D01*
X020491Y027350D01*
X020491Y029950D01*
X016491Y029950D01*
X016491Y027350D01*
X017741Y027350D02*
X019241Y027350D01*
X019241Y027850D02*
X019241Y028450D01*
X017741Y028450D01*
X017741Y027850D01*
X019241Y027850D01*
X019241Y028850D02*
X019241Y029450D01*
X017741Y029450D01*
X017741Y028850D01*
X019241Y028850D01*
X021791Y026200D02*
X022041Y026450D01*
X022541Y026450D01*
X022791Y026200D01*
X023041Y026450D01*
X023541Y026450D01*
X023791Y026200D01*
X024041Y026450D01*
X024541Y026450D01*
X024791Y026200D01*
X025041Y026450D01*
X025541Y026450D01*
X025791Y026200D01*
X026041Y026450D01*
X026541Y026450D01*
X026791Y026200D01*
X026791Y024700D01*
X026541Y024450D01*
X026041Y024450D01*
X025791Y024700D01*
X025541Y024450D01*
X025041Y024450D01*
X024791Y024700D01*
X024541Y024450D01*
X024041Y024450D01*
X023791Y024700D01*
X023541Y024450D01*
X023041Y024450D01*
X022791Y024700D01*
X022541Y024450D01*
X022041Y024450D01*
X021791Y024700D01*
X021791Y026200D01*
X027791Y026200D02*
X027791Y025700D01*
X028041Y025450D01*
X027791Y025200D01*
X027791Y024700D01*
X028041Y024450D01*
X027791Y024200D01*
X027791Y023700D01*
X028041Y023450D01*
X028541Y023450D01*
X028791Y023700D01*
X028791Y024200D01*
X028541Y024450D01*
X028791Y024700D01*
X028791Y025200D01*
X028541Y025450D01*
X028791Y025700D01*
X028791Y026200D01*
X028541Y026450D01*
X028791Y026700D01*
X028791Y027200D01*
X028541Y027450D01*
X028041Y027450D01*
X027791Y027200D01*
X027791Y026700D01*
X028041Y026450D01*
X027791Y026200D01*
X020191Y010100D02*
X017791Y010100D01*
X017741Y010098D01*
X017692Y010092D01*
X017643Y010083D01*
X017595Y010070D01*
X017548Y010053D01*
X017503Y010033D01*
X017459Y010009D01*
X017417Y009982D01*
X017377Y009951D01*
X017340Y009918D01*
X017306Y009882D01*
X017274Y009844D01*
X017245Y009803D01*
X017220Y009761D01*
X017198Y009716D01*
X017179Y009670D01*
X017164Y009622D01*
X017153Y009574D01*
X017145Y009525D01*
X017141Y009475D01*
X017141Y009425D01*
X017145Y009375D01*
X017153Y009326D01*
X017164Y009278D01*
X017179Y009230D01*
X017198Y009184D01*
X017220Y009139D01*
X017245Y009097D01*
X017274Y009056D01*
X017306Y009018D01*
X017340Y008982D01*
X017377Y008949D01*
X017417Y008918D01*
X017459Y008891D01*
X017503Y008867D01*
X017548Y008847D01*
X017595Y008830D01*
X017643Y008817D01*
X017692Y008808D01*
X017741Y008802D01*
X017791Y008800D01*
X020191Y008800D01*
X020241Y008802D01*
X020290Y008808D01*
X020339Y008817D01*
X020387Y008830D01*
X020434Y008847D01*
X020479Y008867D01*
X020523Y008891D01*
X020565Y008918D01*
X020605Y008949D01*
X020642Y008982D01*
X020676Y009018D01*
X020708Y009056D01*
X020737Y009097D01*
X020762Y009139D01*
X020784Y009184D01*
X020803Y009230D01*
X020818Y009278D01*
X020829Y009326D01*
X020837Y009375D01*
X020841Y009425D01*
X020841Y009475D01*
X020837Y009525D01*
X020829Y009574D01*
X020818Y009622D01*
X020803Y009670D01*
X020784Y009716D01*
X020762Y009761D01*
X020737Y009803D01*
X020708Y009844D01*
X020676Y009882D01*
X020642Y009918D01*
X020605Y009951D01*
X020565Y009982D01*
X020523Y010009D01*
X020479Y010033D01*
X020434Y010053D01*
X020387Y010070D01*
X020339Y010083D01*
X020290Y010092D01*
X020241Y010098D01*
X020191Y010100D01*
X019491Y009450D02*
X019241Y009450D01*
X019241Y009750D01*
X019091Y009750D02*
X019091Y009150D01*
X018891Y009150D01*
X018891Y009750D01*
X019091Y009750D01*
X019241Y009450D02*
X019241Y009150D01*
X018741Y009150D02*
X018741Y009450D01*
X018491Y009450D01*
X018741Y009450D02*
X018741Y009750D01*
X021791Y006700D02*
X021791Y005200D01*
X022041Y004950D01*
X022541Y004950D01*
X022791Y005200D01*
X023041Y004950D01*
X023541Y004950D01*
X023791Y005200D01*
X024041Y004950D01*
X024541Y004950D01*
X024791Y005200D01*
X025041Y004950D01*
X025541Y004950D01*
X025791Y005200D01*
X026041Y004950D01*
X026541Y004950D01*
X026791Y005200D01*
X026791Y006700D01*
X026541Y006950D01*
X026041Y006950D01*
X025791Y006700D01*
X025541Y006950D01*
X025041Y006950D01*
X024791Y006700D01*
X024541Y006950D01*
X024041Y006950D01*
X023791Y006700D01*
X023541Y006950D01*
X023041Y006950D01*
X022791Y006700D01*
X022541Y006950D01*
X022041Y006950D01*
X021791Y006700D01*
X027791Y006700D02*
X027791Y006200D01*
X028041Y005950D01*
X027791Y005700D01*
X027791Y005200D01*
X028041Y004950D01*
X027791Y004700D01*
X027791Y004200D01*
X028041Y003950D01*
X028541Y003950D01*
X028791Y004200D01*
X028791Y004700D01*
X028541Y004950D01*
X028791Y005200D01*
X028791Y005700D01*
X028541Y005950D01*
X028791Y006200D01*
X028791Y006700D01*
X028541Y006950D01*
X028791Y007200D01*
X028791Y007700D01*
X028541Y007950D01*
X028041Y007950D01*
X027791Y007700D01*
X027791Y007200D01*
X028041Y006950D01*
X027791Y006700D01*
D11*
X018866Y028150D03*
X018866Y029150D03*
D12*
X017791Y010300D02*
X020191Y010300D01*
X020248Y010298D01*
X020304Y010292D01*
X020360Y010283D01*
X020416Y010270D01*
X020470Y010253D01*
X020523Y010233D01*
X020574Y010209D01*
X020624Y010181D01*
X020672Y010151D01*
X020718Y010117D01*
X020761Y010080D01*
X020802Y010041D01*
X020840Y009999D01*
X020875Y009954D01*
X020907Y009907D01*
X020936Y009858D01*
X020962Y009808D01*
X020984Y009755D01*
X021003Y009702D01*
X021018Y009647D01*
X021029Y009591D01*
X021037Y009535D01*
X021041Y009478D01*
X021041Y009422D01*
X021037Y009365D01*
X021029Y009309D01*
X021018Y009253D01*
X021003Y009198D01*
X020984Y009145D01*
X020962Y009092D01*
X020936Y009042D01*
X020907Y008993D01*
X020875Y008946D01*
X020840Y008901D01*
X020802Y008859D01*
X020761Y008820D01*
X020718Y008783D01*
X020672Y008749D01*
X020624Y008719D01*
X020574Y008691D01*
X020523Y008667D01*
X020470Y008647D01*
X020416Y008630D01*
X020360Y008617D01*
X020304Y008608D01*
X020248Y008602D01*
X020191Y008600D01*
X017791Y008600D01*
X017734Y008602D01*
X017678Y008608D01*
X017622Y008617D01*
X017566Y008630D01*
X017512Y008647D01*
X017459Y008667D01*
X017408Y008691D01*
X017358Y008719D01*
X017310Y008749D01*
X017264Y008783D01*
X017221Y008820D01*
X017180Y008859D01*
X017142Y008901D01*
X017107Y008946D01*
X017075Y008993D01*
X017046Y009042D01*
X017020Y009092D01*
X016998Y009145D01*
X016979Y009198D01*
X016964Y009253D01*
X016953Y009309D01*
X016945Y009365D01*
X016941Y009422D01*
X016941Y009478D01*
X016945Y009535D01*
X016953Y009591D01*
X016964Y009647D01*
X016979Y009702D01*
X016998Y009755D01*
X017020Y009808D01*
X017046Y009858D01*
X017075Y009907D01*
X017107Y009954D01*
X017142Y009999D01*
X017180Y010041D01*
X017221Y010080D01*
X017264Y010117D01*
X017310Y010151D01*
X017358Y010181D01*
X017408Y010209D01*
X017459Y010233D01*
X017512Y010253D01*
X017566Y010270D01*
X017622Y010283D01*
X017678Y010292D01*
X017734Y010298D01*
X017791Y010300D01*
D13*
X013876Y007000D02*
X013876Y006700D01*
X013801Y006625D01*
X013651Y006625D01*
X013576Y006700D01*
X013876Y007000D01*
X013801Y007075D01*
X013651Y007075D01*
X013576Y007000D01*
X013576Y006700D01*
X013416Y006625D02*
X013116Y006625D01*
X013266Y006625D02*
X013266Y007075D01*
X013116Y006925D01*
X009266Y004275D02*
X009266Y003825D01*
X009116Y003825D02*
X009416Y003825D01*
X009116Y004125D02*
X009266Y004275D01*
X007291Y004150D02*
X007291Y000650D01*
X005291Y000650D01*
X005291Y004150D01*
X007291Y004150D01*
X004916Y003639D02*
X004916Y003489D01*
X004841Y003414D01*
X004540Y003714D01*
X004841Y003714D01*
X004916Y003639D01*
X004841Y003414D02*
X004540Y003414D01*
X004465Y003489D01*
X004465Y003639D01*
X004540Y003714D01*
X004916Y003254D02*
X004916Y002954D01*
X004916Y003104D02*
X004465Y003104D01*
X004615Y002954D01*
X002116Y007414D02*
X002116Y007714D01*
X002116Y007564D02*
X001665Y007564D01*
X001815Y007414D01*
X005915Y017275D02*
X005765Y017425D01*
X006216Y017425D01*
X006216Y017275D02*
X006216Y017575D01*
X003416Y021275D02*
X003416Y021575D01*
X003416Y021425D02*
X002965Y021425D01*
X003115Y021275D01*
X003040Y021735D02*
X002965Y021810D01*
X002965Y021960D01*
X003040Y022035D01*
X003341Y021735D01*
X003416Y021810D01*
X003416Y021960D01*
X003341Y022035D01*
X003040Y022035D01*
X003040Y021735D02*
X003341Y021735D01*
X009116Y023825D02*
X009416Y023825D01*
X009266Y023825D02*
X009266Y024275D01*
X009116Y024125D01*
X013116Y026625D02*
X013416Y026625D01*
X013266Y026625D02*
X013266Y027075D01*
X013116Y026925D01*
X013576Y027000D02*
X013576Y026700D01*
X013876Y027000D01*
X013876Y026700D01*
X013801Y026625D01*
X013651Y026625D01*
X013576Y026700D01*
X013576Y027000D02*
X013651Y027075D01*
X013801Y027075D01*
X013876Y027000D01*
X016916Y024075D02*
X016766Y023925D01*
X016916Y024075D02*
X016916Y023625D01*
X016766Y023625D02*
X017066Y023625D01*
X019616Y025600D02*
X019691Y025525D01*
X019841Y025525D01*
X019916Y025600D01*
X019916Y025675D01*
X019841Y025750D01*
X019616Y025750D01*
X019616Y025600D01*
X019616Y025750D02*
X019766Y025900D01*
X019916Y025975D01*
X021745Y024275D02*
X021595Y024125D01*
X021745Y024275D02*
X021745Y023825D01*
X021595Y023825D02*
X021895Y023825D01*
X022055Y023900D02*
X022055Y024200D01*
X022130Y024275D01*
X022280Y024275D01*
X022355Y024200D01*
X022055Y023900D01*
X022130Y023825D01*
X022280Y023825D01*
X022355Y023900D01*
X022355Y024200D01*
X026055Y026625D02*
X026355Y026625D01*
X026205Y026625D02*
X026205Y027075D01*
X026055Y026925D01*
X028065Y027800D02*
X028290Y027575D01*
X028290Y027875D01*
X028065Y027800D02*
X028516Y027800D01*
X028516Y023325D02*
X028516Y023025D01*
X028516Y023175D02*
X028065Y023175D01*
X028215Y023025D01*
X028290Y008375D02*
X028290Y008075D01*
X028065Y008300D01*
X028516Y008300D01*
X026876Y007500D02*
X026876Y007200D01*
X026801Y007125D01*
X026651Y007125D01*
X026576Y007200D01*
X026876Y007500D01*
X026801Y007575D01*
X026651Y007575D01*
X026576Y007500D01*
X026576Y007200D01*
X026416Y007125D02*
X026116Y007125D01*
X026266Y007125D02*
X026266Y007575D01*
X026116Y007425D01*
X028516Y003825D02*
X028516Y003525D01*
X028516Y003675D02*
X028065Y003675D01*
X028215Y003525D01*
X022416Y004325D02*
X022116Y004325D01*
X022266Y004325D02*
X022266Y004775D01*
X022116Y004625D01*
D14*
X005422Y014073D02*
X005344Y014028D01*
X005344Y014029D02*
X005316Y014073D01*
X005285Y014115D01*
X005252Y014155D01*
X005216Y014193D01*
X005177Y014228D01*
X005136Y014260D01*
X005092Y014290D01*
X005047Y014316D01*
X005000Y014339D01*
X004952Y014359D01*
X004902Y014375D01*
X004852Y014388D01*
X004800Y014397D01*
X004748Y014403D01*
X004696Y014405D01*
X004695Y014494D01*
X004696Y014495D01*
X004751Y014493D01*
X004805Y014487D01*
X004860Y014478D01*
X004913Y014465D01*
X004965Y014449D01*
X005017Y014430D01*
X005067Y014407D01*
X005115Y014381D01*
X005162Y014352D01*
X005206Y014320D01*
X005249Y014285D01*
X005289Y014247D01*
X005326Y014207D01*
X005361Y014165D01*
X005393Y014120D01*
X005422Y014074D01*
X005414Y014069D01*
X005386Y014115D01*
X005354Y014159D01*
X005319Y014201D01*
X005282Y014241D01*
X005243Y014278D01*
X005201Y014313D01*
X005157Y014344D01*
X005111Y014373D01*
X005063Y014399D01*
X005013Y014421D01*
X004963Y014441D01*
X004911Y014457D01*
X004858Y014469D01*
X004804Y014478D01*
X004750Y014484D01*
X004696Y014486D01*
X004696Y014477D01*
X004750Y014475D01*
X004803Y014469D01*
X004856Y014460D01*
X004908Y014448D01*
X004960Y014432D01*
X005010Y014413D01*
X005059Y014391D01*
X005106Y014365D01*
X005152Y014337D01*
X005195Y014305D01*
X005237Y014271D01*
X005276Y014235D01*
X005313Y014195D01*
X005347Y014154D01*
X005378Y014110D01*
X005407Y014065D01*
X005399Y014060D01*
X005369Y014108D01*
X005335Y014154D01*
X005299Y014197D01*
X005259Y014238D01*
X005217Y014276D01*
X005173Y014311D01*
X005126Y014343D01*
X005077Y014371D01*
X005026Y014396D01*
X004973Y014418D01*
X004920Y014435D01*
X004865Y014449D01*
X004809Y014459D01*
X004753Y014466D01*
X004696Y014468D01*
X004696Y014459D01*
X004752Y014457D01*
X004808Y014451D01*
X004863Y014441D01*
X004917Y014427D01*
X004970Y014409D01*
X005022Y014388D01*
X005073Y014363D01*
X005121Y014335D01*
X005167Y014304D01*
X005212Y014269D01*
X005253Y014232D01*
X005292Y014191D01*
X005328Y014149D01*
X005361Y014103D01*
X005391Y014056D01*
X005383Y014051D01*
X005354Y014098D01*
X005321Y014143D01*
X005285Y014185D01*
X005247Y014225D01*
X005206Y014262D01*
X005162Y014297D01*
X005116Y014328D01*
X005068Y014355D01*
X005019Y014380D01*
X004967Y014401D01*
X004915Y014418D01*
X004861Y014432D01*
X004806Y014442D01*
X004751Y014448D01*
X004696Y014450D01*
X004696Y014441D01*
X004751Y014439D01*
X004805Y014433D01*
X004859Y014423D01*
X004912Y014409D01*
X004964Y014392D01*
X005015Y014372D01*
X005064Y014347D01*
X005111Y014320D01*
X005157Y014289D01*
X005200Y014256D01*
X005241Y014219D01*
X005279Y014179D01*
X005314Y014137D01*
X005346Y014093D01*
X005375Y014047D01*
X005367Y014042D01*
X005339Y014088D01*
X005307Y014132D01*
X005272Y014173D01*
X005234Y014212D01*
X005194Y014249D01*
X005152Y014282D01*
X005107Y014312D01*
X005060Y014340D01*
X005011Y014363D01*
X004961Y014384D01*
X004910Y014401D01*
X004857Y014414D01*
X004804Y014424D01*
X004750Y014430D01*
X004696Y014432D01*
X004696Y014423D01*
X004749Y014421D01*
X004803Y014415D01*
X004855Y014405D01*
X004907Y014392D01*
X004958Y014375D01*
X005008Y014355D01*
X005056Y014332D01*
X005102Y014305D01*
X005146Y014275D01*
X005188Y014242D01*
X005228Y014206D01*
X005265Y014167D01*
X005300Y014126D01*
X005331Y014083D01*
X005360Y014038D01*
X005352Y014033D01*
X005324Y014078D01*
X005293Y014121D01*
X005259Y014161D01*
X005222Y014199D01*
X005183Y014235D01*
X005141Y014267D01*
X005097Y014297D01*
X005051Y014324D01*
X005004Y014347D01*
X004955Y014367D01*
X004905Y014384D01*
X004853Y014397D01*
X004801Y014406D01*
X004749Y014412D01*
X004696Y014414D01*
X004687Y014494D02*
X004687Y014404D01*
X004686Y014405D02*
X004632Y014403D01*
X004579Y014397D01*
X004526Y014387D01*
X004474Y014373D01*
X004423Y014356D01*
X004373Y014335D01*
X004325Y014311D01*
X004279Y014283D01*
X004235Y014252D01*
X004194Y014218D01*
X004154Y014181D01*
X004118Y014142D01*
X004050Y014199D01*
X004049Y014200D01*
X004087Y014241D01*
X004127Y014279D01*
X004170Y014315D01*
X004215Y014348D01*
X004262Y014378D01*
X004310Y014404D01*
X004361Y014428D01*
X004413Y014448D01*
X004466Y014464D01*
X004520Y014478D01*
X004575Y014487D01*
X004630Y014493D01*
X004686Y014495D01*
X004686Y014486D01*
X004631Y014484D01*
X004576Y014478D01*
X004522Y014469D01*
X004468Y014456D01*
X004416Y014439D01*
X004364Y014420D01*
X004314Y014396D01*
X004266Y014370D01*
X004220Y014340D01*
X004175Y014308D01*
X004133Y014273D01*
X004093Y014234D01*
X004056Y014194D01*
X004063Y014188D01*
X004100Y014228D01*
X004139Y014266D01*
X004181Y014301D01*
X004225Y014333D01*
X004271Y014362D01*
X004319Y014388D01*
X004368Y014411D01*
X004419Y014431D01*
X004471Y014447D01*
X004524Y014460D01*
X004577Y014469D01*
X004632Y014475D01*
X004686Y014477D01*
X004686Y014468D01*
X004632Y014466D01*
X004579Y014460D01*
X004526Y014451D01*
X004473Y014438D01*
X004422Y014422D01*
X004371Y014403D01*
X004323Y014380D01*
X004275Y014355D01*
X004230Y014326D01*
X004186Y014294D01*
X004145Y014259D01*
X004106Y014222D01*
X004070Y014182D01*
X004077Y014176D01*
X004113Y014216D01*
X004151Y014253D01*
X004192Y014287D01*
X004235Y014318D01*
X004280Y014347D01*
X004327Y014372D01*
X004375Y014395D01*
X004425Y014414D01*
X004476Y014430D01*
X004527Y014442D01*
X004580Y014451D01*
X004633Y014457D01*
X004686Y014459D01*
X004686Y014450D01*
X004633Y014448D01*
X004581Y014442D01*
X004529Y014433D01*
X004478Y014421D01*
X004428Y014405D01*
X004378Y014386D01*
X004331Y014364D01*
X004284Y014339D01*
X004240Y014311D01*
X004198Y014280D01*
X004157Y014246D01*
X004119Y014209D01*
X004084Y014171D01*
X004090Y014165D01*
X004126Y014203D01*
X004163Y014239D01*
X004203Y014273D01*
X004245Y014303D01*
X004289Y014331D01*
X004335Y014356D01*
X004382Y014378D01*
X004431Y014397D01*
X004480Y014412D01*
X004531Y014425D01*
X004582Y014433D01*
X004634Y014439D01*
X004686Y014441D01*
X004686Y014432D01*
X004630Y014430D01*
X004575Y014423D01*
X004520Y014413D01*
X004466Y014399D01*
X004413Y014381D01*
X004362Y014359D01*
X004312Y014334D01*
X004264Y014305D01*
X004219Y014273D01*
X004176Y014238D01*
X004135Y014200D01*
X004097Y014159D01*
X004104Y014153D01*
X004141Y014194D01*
X004182Y014231D01*
X004224Y014266D01*
X004269Y014298D01*
X004317Y014326D01*
X004366Y014351D01*
X004417Y014373D01*
X004469Y014390D01*
X004522Y014404D01*
X004576Y014414D01*
X004631Y014421D01*
X004686Y014423D01*
X004686Y014414D01*
X004632Y014412D01*
X004577Y014406D01*
X004524Y014396D01*
X004471Y014382D01*
X004420Y014364D01*
X004370Y014343D01*
X004321Y014318D01*
X004274Y014290D01*
X004230Y014259D01*
X004188Y014225D01*
X004148Y014187D01*
X004111Y014147D01*
X004696Y012806D02*
X004696Y012896D01*
X004696Y012895D02*
X004750Y012897D01*
X004803Y012903D01*
X004856Y012913D01*
X004908Y012927D01*
X004959Y012944D01*
X005008Y012965D01*
X005056Y012989D01*
X005102Y013017D01*
X005146Y013048D01*
X005188Y013082D01*
X005227Y013118D01*
X005264Y013158D01*
X005297Y013200D01*
X005328Y013244D01*
X005355Y013290D01*
X005434Y013248D01*
X005406Y013199D01*
X005374Y013153D01*
X005339Y013108D01*
X005302Y013066D01*
X005261Y013027D01*
X005218Y012990D01*
X005173Y012956D01*
X005126Y012925D01*
X005076Y012898D01*
X005025Y012874D01*
X004973Y012853D01*
X004919Y012836D01*
X004864Y012823D01*
X004809Y012813D01*
X004752Y012807D01*
X004696Y012805D01*
X004696Y012814D01*
X004752Y012816D01*
X004807Y012822D01*
X004862Y012832D01*
X004917Y012845D01*
X004970Y012862D01*
X005022Y012882D01*
X005072Y012906D01*
X005121Y012933D01*
X005168Y012963D01*
X005213Y012997D01*
X005255Y013033D01*
X005295Y013072D01*
X005332Y013114D01*
X005367Y013158D01*
X005398Y013204D01*
X005426Y013252D01*
X005418Y013256D01*
X005390Y013209D01*
X005359Y013163D01*
X005325Y013120D01*
X005289Y013078D01*
X005249Y013040D01*
X005207Y013004D01*
X005163Y012971D01*
X005117Y012941D01*
X005068Y012914D01*
X005018Y012891D01*
X004967Y012870D01*
X004914Y012854D01*
X004861Y012841D01*
X004806Y012831D01*
X004751Y012825D01*
X004696Y012823D01*
X004696Y012832D01*
X004751Y012834D01*
X004805Y012840D01*
X004859Y012849D01*
X004912Y012862D01*
X004964Y012879D01*
X005015Y012899D01*
X005064Y012922D01*
X005112Y012949D01*
X005158Y012978D01*
X005202Y013011D01*
X005243Y013046D01*
X005282Y013085D01*
X005319Y013125D01*
X005352Y013168D01*
X005383Y013214D01*
X005410Y013261D01*
X005402Y013265D01*
X005375Y013218D01*
X005345Y013174D01*
X005312Y013131D01*
X005276Y013091D01*
X005237Y013053D01*
X005196Y013018D01*
X005153Y012986D01*
X005107Y012956D01*
X005060Y012930D01*
X005011Y012907D01*
X004961Y012887D01*
X004909Y012871D01*
X004857Y012858D01*
X004804Y012849D01*
X004750Y012843D01*
X004696Y012841D01*
X004696Y012850D01*
X004749Y012852D01*
X004803Y012858D01*
X004855Y012867D01*
X004907Y012880D01*
X004958Y012896D01*
X005008Y012915D01*
X005056Y012938D01*
X005103Y012964D01*
X005147Y012993D01*
X005190Y013025D01*
X005231Y013060D01*
X005269Y013097D01*
X005305Y013137D01*
X005338Y013179D01*
X005368Y013223D01*
X005395Y013269D01*
X005387Y013273D01*
X005360Y013228D01*
X005330Y013184D01*
X005298Y013143D01*
X005263Y013103D01*
X005225Y013066D01*
X005185Y013032D01*
X005142Y013000D01*
X005098Y012972D01*
X005052Y012946D01*
X005004Y012924D01*
X004955Y012904D01*
X004905Y012888D01*
X004853Y012876D01*
X004801Y012867D01*
X004749Y012861D01*
X004696Y012859D01*
X004696Y012868D01*
X004752Y012870D01*
X004807Y012877D01*
X004862Y012887D01*
X004916Y012901D01*
X004968Y012919D01*
X005020Y012940D01*
X005069Y012966D01*
X005117Y012994D01*
X005163Y013026D01*
X005206Y013061D01*
X005246Y013099D01*
X005284Y013140D01*
X005319Y013184D01*
X005350Y013230D01*
X005379Y013278D01*
X005371Y013282D01*
X005343Y013234D01*
X005312Y013189D01*
X005277Y013146D01*
X005240Y013106D01*
X005200Y013068D01*
X005157Y013033D01*
X005112Y013002D01*
X005065Y012973D01*
X005016Y012949D01*
X004965Y012927D01*
X004913Y012910D01*
X004860Y012896D01*
X004806Y012886D01*
X004751Y012879D01*
X004696Y012877D01*
X004696Y012886D01*
X004750Y012888D01*
X004804Y012894D01*
X004858Y012904D01*
X004910Y012918D01*
X004962Y012936D01*
X005012Y012957D01*
X005061Y012981D01*
X005107Y013009D01*
X005152Y013041D01*
X005194Y013075D01*
X005233Y013112D01*
X005270Y013152D01*
X005304Y013194D01*
X005335Y013239D01*
X005363Y013286D01*
X004046Y013106D02*
X004115Y013163D01*
X004114Y013163D02*
X004151Y013123D01*
X004190Y013085D01*
X004232Y013051D01*
X004276Y013019D01*
X004322Y012991D01*
X004371Y012966D01*
X004421Y012945D01*
X004472Y012927D01*
X004525Y012914D01*
X004578Y012904D01*
X004632Y012897D01*
X004686Y012895D01*
X004687Y012806D01*
X004686Y012805D01*
X004630Y012807D01*
X004574Y012813D01*
X004519Y012823D01*
X004464Y012836D01*
X004411Y012853D01*
X004358Y012873D01*
X004307Y012897D01*
X004258Y012924D01*
X004211Y012955D01*
X004166Y012988D01*
X004123Y013024D01*
X004083Y013063D01*
X004045Y013105D01*
X004052Y013111D01*
X004089Y013070D01*
X004129Y013031D01*
X004171Y012995D01*
X004216Y012962D01*
X004263Y012932D01*
X004311Y012905D01*
X004362Y012882D01*
X004414Y012861D01*
X004467Y012845D01*
X004521Y012832D01*
X004575Y012822D01*
X004630Y012816D01*
X004686Y012814D01*
X004686Y012823D01*
X004631Y012825D01*
X004576Y012831D01*
X004522Y012840D01*
X004469Y012853D01*
X004417Y012870D01*
X004365Y012890D01*
X004316Y012913D01*
X004267Y012940D01*
X004221Y012969D01*
X004177Y013002D01*
X004135Y013038D01*
X004096Y013076D01*
X004059Y013117D01*
X004066Y013122D01*
X004102Y013082D01*
X004141Y013044D01*
X004183Y013009D01*
X004226Y012977D01*
X004272Y012947D01*
X004320Y012921D01*
X004369Y012898D01*
X004419Y012878D01*
X004471Y012862D01*
X004524Y012849D01*
X004578Y012840D01*
X004632Y012834D01*
X004686Y012832D01*
X004686Y012841D01*
X004632Y012843D01*
X004579Y012849D01*
X004526Y012858D01*
X004474Y012871D01*
X004422Y012887D01*
X004372Y012906D01*
X004324Y012929D01*
X004277Y012955D01*
X004231Y012984D01*
X004188Y013016D01*
X004147Y013051D01*
X004109Y013088D01*
X004073Y013128D01*
X004080Y013134D01*
X004115Y013095D01*
X004153Y013058D01*
X004194Y013023D01*
X004237Y012992D01*
X004281Y012963D01*
X004328Y012937D01*
X004376Y012915D01*
X004425Y012895D01*
X004476Y012879D01*
X004528Y012867D01*
X004580Y012858D01*
X004633Y012852D01*
X004686Y012850D01*
X004686Y012859D01*
X004634Y012861D01*
X004581Y012867D01*
X004530Y012876D01*
X004479Y012888D01*
X004428Y012904D01*
X004379Y012923D01*
X004332Y012945D01*
X004286Y012971D01*
X004242Y012999D01*
X004200Y013030D01*
X004159Y013064D01*
X004122Y013101D01*
X004087Y013140D01*
X004093Y013146D01*
X004128Y013107D01*
X004166Y013071D01*
X004205Y013037D01*
X004247Y013006D01*
X004291Y012978D01*
X004336Y012953D01*
X004383Y012931D01*
X004431Y012912D01*
X004481Y012897D01*
X004531Y012884D01*
X004582Y012876D01*
X004634Y012870D01*
X004686Y012868D01*
X004686Y012877D01*
X004635Y012879D01*
X004584Y012884D01*
X004533Y012893D01*
X004483Y012905D01*
X004434Y012921D01*
X004387Y012939D01*
X004340Y012961D01*
X004295Y012986D01*
X004252Y013014D01*
X004211Y013044D01*
X004172Y013077D01*
X004135Y013113D01*
X004100Y013151D01*
X004107Y013157D01*
X004144Y013116D01*
X004184Y013078D01*
X004226Y013044D01*
X004271Y013012D01*
X004318Y012983D01*
X004367Y012958D01*
X004418Y012937D01*
X004469Y012919D01*
X004523Y012905D01*
X004577Y012895D01*
X004631Y012888D01*
X004686Y012886D01*
X005181Y014037D02*
X005141Y014006D01*
X005142Y014007D02*
X005111Y014042D01*
X005078Y014075D01*
X005043Y014105D01*
X005004Y014132D01*
X004964Y014156D01*
X004922Y014176D01*
X004879Y014193D01*
X004834Y014207D01*
X004789Y014217D01*
X004743Y014223D01*
X004696Y014225D01*
X004695Y014274D01*
X004696Y014275D01*
X004742Y014273D01*
X004789Y014267D01*
X004834Y014258D01*
X004879Y014246D01*
X004923Y014230D01*
X004966Y014211D01*
X005007Y014189D01*
X005046Y014164D01*
X005083Y014137D01*
X005118Y014106D01*
X005151Y014073D01*
X005181Y014038D01*
X005174Y014032D01*
X005144Y014067D01*
X005112Y014100D01*
X005078Y014130D01*
X005041Y014157D01*
X005002Y014182D01*
X004962Y014203D01*
X004920Y014222D01*
X004877Y014237D01*
X004832Y014250D01*
X004787Y014258D01*
X004742Y014264D01*
X004696Y014266D01*
X004696Y014257D01*
X004741Y014255D01*
X004786Y014250D01*
X004830Y014241D01*
X004874Y014229D01*
X004916Y014214D01*
X004958Y014195D01*
X004998Y014174D01*
X005036Y014150D01*
X005072Y014123D01*
X005106Y014093D01*
X005138Y014061D01*
X005167Y014027D01*
X005160Y014021D01*
X005128Y014058D01*
X005094Y014092D01*
X005057Y014123D01*
X005017Y014151D01*
X004975Y014176D01*
X004932Y014197D01*
X004887Y014215D01*
X004840Y014229D01*
X004793Y014239D01*
X004744Y014246D01*
X004696Y014248D01*
X004696Y014239D01*
X004744Y014237D01*
X004791Y014230D01*
X004838Y014220D01*
X004884Y014207D01*
X004928Y014189D01*
X004971Y014168D01*
X005012Y014144D01*
X005051Y014116D01*
X005088Y014085D01*
X005122Y014052D01*
X005153Y014016D01*
X005146Y014010D01*
X005115Y014046D01*
X005082Y014079D01*
X005046Y014109D01*
X005007Y014136D01*
X004967Y014160D01*
X004924Y014181D01*
X004881Y014198D01*
X004836Y014212D01*
X004790Y014222D01*
X004743Y014228D01*
X004696Y014230D01*
X004687Y014274D02*
X004687Y014224D01*
X004686Y014225D02*
X004639Y014223D01*
X004593Y014217D01*
X004548Y014207D01*
X004503Y014193D01*
X004460Y014176D01*
X004418Y014156D01*
X004378Y014132D01*
X004339Y014105D01*
X004304Y014075D01*
X004271Y014042D01*
X004240Y014007D01*
X004201Y014037D01*
X004201Y014038D01*
X004231Y014073D01*
X004264Y014106D01*
X004299Y014137D01*
X004336Y014164D01*
X004375Y014189D01*
X004416Y014211D01*
X004459Y014230D01*
X004503Y014246D01*
X004548Y014258D01*
X004593Y014267D01*
X004640Y014273D01*
X004686Y014275D01*
X004686Y014266D01*
X004640Y014264D01*
X004595Y014258D01*
X004550Y014250D01*
X004505Y014237D01*
X004462Y014222D01*
X004420Y014203D01*
X004380Y014182D01*
X004341Y014157D01*
X004304Y014130D01*
X004270Y014100D01*
X004238Y014067D01*
X004208Y014032D01*
X004215Y014027D01*
X004244Y014061D01*
X004276Y014093D01*
X004310Y014123D01*
X004346Y014150D01*
X004384Y014174D01*
X004424Y014195D01*
X004466Y014214D01*
X004508Y014229D01*
X004552Y014241D01*
X004596Y014250D01*
X004641Y014255D01*
X004686Y014257D01*
X004686Y014248D01*
X004638Y014246D01*
X004589Y014239D01*
X004542Y014229D01*
X004495Y014215D01*
X004450Y014197D01*
X004407Y014176D01*
X004365Y014151D01*
X004325Y014123D01*
X004288Y014092D01*
X004254Y014058D01*
X004222Y014021D01*
X004229Y014016D01*
X004260Y014052D01*
X004294Y014085D01*
X004331Y014116D01*
X004370Y014144D01*
X004411Y014168D01*
X004454Y014189D01*
X004498Y014207D01*
X004544Y014220D01*
X004591Y014230D01*
X004638Y014237D01*
X004686Y014239D01*
X004686Y014230D01*
X004639Y014228D01*
X004592Y014222D01*
X004546Y014212D01*
X004501Y014198D01*
X004458Y014181D01*
X004415Y014160D01*
X004375Y014136D01*
X004336Y014109D01*
X004300Y014079D01*
X004267Y014046D01*
X004236Y014010D01*
X004695Y013026D02*
X004695Y013076D01*
X004696Y013075D02*
X004740Y013077D01*
X004783Y013082D01*
X004826Y013091D01*
X004868Y013103D01*
X004908Y013118D01*
X004948Y013136D01*
X004986Y013157D01*
X005023Y013180D01*
X005058Y013207D01*
X005090Y013236D01*
X005120Y013267D01*
X005148Y013301D01*
X005187Y013272D01*
X005188Y013271D01*
X005158Y013234D01*
X005125Y013200D01*
X005090Y013169D01*
X005052Y013140D01*
X005012Y013114D01*
X004971Y013091D01*
X004927Y013071D01*
X004883Y013055D01*
X004837Y013042D01*
X004791Y013033D01*
X004743Y013027D01*
X004696Y013025D01*
X004696Y013034D01*
X004743Y013036D01*
X004789Y013042D01*
X004835Y013051D01*
X004880Y013064D01*
X004924Y013080D01*
X004966Y013099D01*
X005007Y013122D01*
X005047Y013147D01*
X005084Y013175D01*
X005119Y013207D01*
X005151Y013240D01*
X005181Y013276D01*
X005174Y013282D01*
X005144Y013246D01*
X005112Y013213D01*
X005078Y013182D01*
X005041Y013154D01*
X005003Y013129D01*
X004962Y013107D01*
X004921Y013088D01*
X004877Y013072D01*
X004833Y013060D01*
X004788Y013051D01*
X004742Y013045D01*
X004696Y013043D01*
X004696Y013052D01*
X004741Y013054D01*
X004786Y013060D01*
X004831Y013069D01*
X004874Y013081D01*
X004917Y013096D01*
X004958Y013115D01*
X004998Y013137D01*
X005036Y013162D01*
X005072Y013189D01*
X005106Y013220D01*
X005138Y013252D01*
X005166Y013287D01*
X005159Y013293D01*
X005131Y013258D01*
X005100Y013226D01*
X005066Y013196D01*
X005031Y013169D01*
X004994Y013145D01*
X004954Y013123D01*
X004914Y013105D01*
X004872Y013089D01*
X004829Y013077D01*
X004785Y013069D01*
X004741Y013063D01*
X004696Y013061D01*
X004696Y013070D01*
X004740Y013072D01*
X004784Y013077D01*
X004827Y013086D01*
X004869Y013098D01*
X004910Y013113D01*
X004950Y013131D01*
X004989Y013152D01*
X005026Y013176D01*
X005061Y013203D01*
X005094Y013232D01*
X005124Y013264D01*
X005152Y013298D01*
X004186Y013283D02*
X004227Y013312D01*
X004226Y013312D02*
X004254Y013277D01*
X004284Y013244D01*
X004317Y013213D01*
X004352Y013186D01*
X004389Y013161D01*
X004428Y013139D01*
X004468Y013120D01*
X004510Y013104D01*
X004553Y013092D01*
X004597Y013083D01*
X004641Y013077D01*
X004686Y013075D01*
X004687Y013026D01*
X004686Y013025D01*
X004637Y013027D01*
X004589Y013033D01*
X004541Y013043D01*
X004495Y013057D01*
X004449Y013074D01*
X004405Y013094D01*
X004363Y013118D01*
X004322Y013145D01*
X004284Y013176D01*
X004248Y013209D01*
X004215Y013244D01*
X004185Y013283D01*
X004193Y013288D01*
X004222Y013250D01*
X004255Y013215D01*
X004290Y013182D01*
X004328Y013153D01*
X004367Y013126D01*
X004409Y013102D01*
X004453Y013082D01*
X004497Y013065D01*
X004544Y013052D01*
X004591Y013042D01*
X004638Y013036D01*
X004686Y013034D01*
X004686Y013043D01*
X004639Y013045D01*
X004592Y013051D01*
X004546Y013061D01*
X004500Y013074D01*
X004456Y013090D01*
X004413Y013110D01*
X004372Y013134D01*
X004333Y013160D01*
X004296Y013189D01*
X004261Y013221D01*
X004229Y013256D01*
X004200Y013293D01*
X004207Y013298D01*
X004236Y013262D01*
X004268Y013228D01*
X004302Y013196D01*
X004338Y013167D01*
X004377Y013141D01*
X004417Y013118D01*
X004460Y013099D01*
X004503Y013082D01*
X004548Y013069D01*
X004593Y013060D01*
X004640Y013054D01*
X004686Y013052D01*
X004686Y013061D01*
X004640Y013063D01*
X004595Y013069D01*
X004550Y013078D01*
X004506Y013091D01*
X004463Y013107D01*
X004421Y013126D01*
X004382Y013149D01*
X004344Y013174D01*
X004308Y013203D01*
X004274Y013234D01*
X004243Y013268D01*
X004215Y013304D01*
X004222Y013309D01*
X004250Y013273D01*
X004280Y013240D01*
X004314Y013210D01*
X004349Y013182D01*
X004386Y013156D01*
X004426Y013134D01*
X004466Y013115D01*
X004509Y013099D01*
X004552Y013087D01*
X004596Y013078D01*
X004641Y013072D01*
X004686Y013070D01*
X002686Y014494D02*
X002686Y014404D01*
X002686Y014405D02*
X002632Y014403D01*
X002579Y014397D01*
X002526Y014387D01*
X002474Y014373D01*
X002423Y014356D01*
X002374Y014335D01*
X002326Y014311D01*
X002280Y014283D01*
X002236Y014252D01*
X002194Y014218D01*
X002155Y014182D01*
X002118Y014142D01*
X002085Y014100D01*
X002054Y014056D01*
X002027Y014010D01*
X001948Y014052D01*
X001976Y014101D01*
X002008Y014147D01*
X002043Y014192D01*
X002080Y014234D01*
X002121Y014273D01*
X002164Y014310D01*
X002209Y014344D01*
X002256Y014375D01*
X002306Y014402D01*
X002357Y014426D01*
X002409Y014447D01*
X002463Y014464D01*
X002518Y014477D01*
X002573Y014487D01*
X002630Y014493D01*
X002686Y014495D01*
X002686Y014486D01*
X002630Y014484D01*
X002575Y014478D01*
X002520Y014468D01*
X002465Y014455D01*
X002412Y014438D01*
X002360Y014418D01*
X002310Y014394D01*
X002261Y014367D01*
X002214Y014337D01*
X002169Y014303D01*
X002127Y014267D01*
X002087Y014228D01*
X002050Y014186D01*
X002015Y014142D01*
X001984Y014096D01*
X001956Y014048D01*
X001964Y014044D01*
X001992Y014091D01*
X002023Y014137D01*
X002057Y014180D01*
X002093Y014222D01*
X002133Y014260D01*
X002175Y014296D01*
X002219Y014329D01*
X002265Y014359D01*
X002314Y014386D01*
X002364Y014409D01*
X002415Y014430D01*
X002468Y014446D01*
X002521Y014459D01*
X002576Y014469D01*
X002631Y014475D01*
X002686Y014477D01*
X002686Y014468D01*
X002631Y014466D01*
X002577Y014460D01*
X002523Y014451D01*
X002470Y014438D01*
X002418Y014421D01*
X002367Y014401D01*
X002318Y014378D01*
X002270Y014351D01*
X002224Y014322D01*
X002180Y014289D01*
X002139Y014254D01*
X002100Y014215D01*
X002063Y014175D01*
X002030Y014132D01*
X001999Y014086D01*
X001972Y014039D01*
X001980Y014035D01*
X002007Y014082D01*
X002037Y014126D01*
X002070Y014169D01*
X002106Y014209D01*
X002145Y014247D01*
X002186Y014282D01*
X002229Y014314D01*
X002275Y014344D01*
X002322Y014370D01*
X002371Y014393D01*
X002421Y014413D01*
X002473Y014429D01*
X002525Y014442D01*
X002578Y014451D01*
X002632Y014457D01*
X002686Y014459D01*
X002686Y014450D01*
X002633Y014448D01*
X002579Y014442D01*
X002527Y014433D01*
X002475Y014420D01*
X002424Y014404D01*
X002374Y014385D01*
X002326Y014362D01*
X002279Y014336D01*
X002235Y014307D01*
X002192Y014275D01*
X002151Y014240D01*
X002113Y014203D01*
X002077Y014163D01*
X002044Y014121D01*
X002014Y014077D01*
X001987Y014031D01*
X001995Y014027D01*
X002022Y014072D01*
X002052Y014116D01*
X002084Y014157D01*
X002119Y014197D01*
X002157Y014234D01*
X002197Y014268D01*
X002240Y014300D01*
X002284Y014328D01*
X002330Y014354D01*
X002378Y014376D01*
X002427Y014396D01*
X002477Y014412D01*
X002529Y014424D01*
X002581Y014433D01*
X002633Y014439D01*
X002686Y014441D01*
X002686Y014432D01*
X002630Y014430D01*
X002575Y014423D01*
X002520Y014413D01*
X002466Y014399D01*
X002414Y014381D01*
X002362Y014360D01*
X002313Y014334D01*
X002265Y014306D01*
X002219Y014274D01*
X002176Y014239D01*
X002136Y014201D01*
X002098Y014160D01*
X002063Y014116D01*
X002032Y014070D01*
X002003Y014022D01*
X002011Y014018D01*
X002039Y014066D01*
X002070Y014111D01*
X002105Y014154D01*
X002142Y014194D01*
X002182Y014232D01*
X002225Y014267D01*
X002270Y014298D01*
X002317Y014327D01*
X002366Y014351D01*
X002417Y014373D01*
X002469Y014390D01*
X002522Y014404D01*
X002576Y014414D01*
X002631Y014421D01*
X002686Y014423D01*
X002686Y014414D01*
X002632Y014412D01*
X002578Y014406D01*
X002524Y014396D01*
X002472Y014382D01*
X002420Y014364D01*
X002370Y014343D01*
X002321Y014319D01*
X002275Y014291D01*
X002230Y014259D01*
X002188Y014225D01*
X002149Y014188D01*
X002112Y014148D01*
X002078Y014106D01*
X002047Y014061D01*
X002019Y014014D01*
X001960Y013227D02*
X002038Y013272D01*
X002038Y013271D02*
X002066Y013227D01*
X002097Y013185D01*
X002130Y013145D01*
X002166Y013107D01*
X002205Y013072D01*
X002246Y013040D01*
X002290Y013010D01*
X002335Y012984D01*
X002382Y012961D01*
X002430Y012941D01*
X002480Y012925D01*
X002530Y012912D01*
X002582Y012903D01*
X002634Y012897D01*
X002686Y012895D01*
X002687Y012806D01*
X002686Y012805D01*
X002631Y012807D01*
X002577Y012813D01*
X002522Y012822D01*
X002469Y012835D01*
X002417Y012851D01*
X002365Y012870D01*
X002315Y012893D01*
X002267Y012919D01*
X002220Y012948D01*
X002176Y012980D01*
X002133Y013015D01*
X002093Y013053D01*
X002056Y013093D01*
X002021Y013135D01*
X001989Y013180D01*
X001960Y013226D01*
X001968Y013231D01*
X001996Y013185D01*
X002028Y013141D01*
X002063Y013099D01*
X002100Y013059D01*
X002139Y013022D01*
X002181Y012987D01*
X002225Y012956D01*
X002271Y012927D01*
X002319Y012901D01*
X002369Y012879D01*
X002419Y012859D01*
X002471Y012843D01*
X002524Y012831D01*
X002578Y012822D01*
X002632Y012816D01*
X002686Y012814D01*
X002686Y012823D01*
X002632Y012825D01*
X002579Y012831D01*
X002526Y012840D01*
X002474Y012852D01*
X002422Y012868D01*
X002372Y012887D01*
X002323Y012909D01*
X002276Y012935D01*
X002230Y012963D01*
X002187Y012995D01*
X002145Y013029D01*
X002106Y013065D01*
X002069Y013105D01*
X002035Y013146D01*
X002004Y013190D01*
X001975Y013235D01*
X001983Y013240D01*
X002013Y013192D01*
X002047Y013146D01*
X002083Y013103D01*
X002123Y013062D01*
X002165Y013024D01*
X002209Y012989D01*
X002256Y012957D01*
X002305Y012929D01*
X002356Y012904D01*
X002409Y012882D01*
X002462Y012865D01*
X002517Y012851D01*
X002573Y012841D01*
X002629Y012834D01*
X002686Y012832D01*
X002686Y012841D01*
X002630Y012843D01*
X002574Y012849D01*
X002519Y012859D01*
X002465Y012873D01*
X002412Y012891D01*
X002360Y012912D01*
X002309Y012937D01*
X002261Y012965D01*
X002215Y012996D01*
X002170Y013031D01*
X002129Y013068D01*
X002090Y013109D01*
X002054Y013151D01*
X002021Y013197D01*
X001991Y013244D01*
X001999Y013249D01*
X002028Y013202D01*
X002061Y013157D01*
X002097Y013115D01*
X002135Y013075D01*
X002176Y013038D01*
X002220Y013003D01*
X002266Y012972D01*
X002314Y012945D01*
X002363Y012920D01*
X002415Y012899D01*
X002467Y012882D01*
X002521Y012868D01*
X002576Y012858D01*
X002631Y012852D01*
X002686Y012850D01*
X002686Y012859D01*
X002631Y012861D01*
X002577Y012867D01*
X002523Y012877D01*
X002470Y012891D01*
X002418Y012908D01*
X002367Y012928D01*
X002318Y012953D01*
X002271Y012980D01*
X002225Y013011D01*
X002182Y013044D01*
X002141Y013081D01*
X002103Y013121D01*
X002068Y013163D01*
X002036Y013207D01*
X002007Y013253D01*
X002015Y013258D01*
X002043Y013212D01*
X002075Y013168D01*
X002110Y013127D01*
X002148Y013088D01*
X002188Y013051D01*
X002230Y013018D01*
X002275Y012988D01*
X002322Y012960D01*
X002371Y012937D01*
X002421Y012916D01*
X002472Y012899D01*
X002525Y012886D01*
X002578Y012876D01*
X002632Y012870D01*
X002686Y012868D01*
X002686Y012877D01*
X002633Y012879D01*
X002579Y012885D01*
X002527Y012895D01*
X002475Y012908D01*
X002424Y012925D01*
X002374Y012945D01*
X002326Y012968D01*
X002280Y012995D01*
X002236Y013025D01*
X002194Y013058D01*
X002154Y013094D01*
X002117Y013133D01*
X002082Y013174D01*
X002051Y013217D01*
X002022Y013262D01*
X002030Y013267D01*
X002058Y013222D01*
X002089Y013179D01*
X002123Y013139D01*
X002160Y013101D01*
X002199Y013065D01*
X002241Y013033D01*
X002285Y013003D01*
X002331Y012976D01*
X002378Y012953D01*
X002427Y012933D01*
X002477Y012916D01*
X002529Y012903D01*
X002581Y012894D01*
X002633Y012888D01*
X002686Y012886D01*
X002695Y012806D02*
X002695Y012896D01*
X002696Y012895D02*
X002750Y012897D01*
X002803Y012903D01*
X002856Y012913D01*
X002908Y012927D01*
X002959Y012944D01*
X003009Y012965D01*
X003057Y012989D01*
X003103Y013017D01*
X003147Y013048D01*
X003188Y013082D01*
X003228Y013119D01*
X003264Y013158D01*
X003332Y013101D01*
X003333Y013100D01*
X003295Y013059D01*
X003255Y013021D01*
X003212Y012985D01*
X003167Y012952D01*
X003120Y012922D01*
X003072Y012896D01*
X003021Y012872D01*
X002969Y012852D01*
X002916Y012836D01*
X002862Y012822D01*
X002807Y012813D01*
X002752Y012807D01*
X002696Y012805D01*
X002696Y012814D01*
X002751Y012816D01*
X002806Y012822D01*
X002860Y012831D01*
X002914Y012844D01*
X002966Y012861D01*
X003018Y012880D01*
X003068Y012904D01*
X003116Y012930D01*
X003162Y012960D01*
X003207Y012992D01*
X003249Y013027D01*
X003289Y013066D01*
X003326Y013106D01*
X003319Y013112D01*
X003282Y013072D01*
X003243Y013034D01*
X003201Y012999D01*
X003157Y012967D01*
X003111Y012938D01*
X003063Y012912D01*
X003014Y012889D01*
X002963Y012869D01*
X002911Y012853D01*
X002858Y012840D01*
X002805Y012831D01*
X002750Y012825D01*
X002696Y012823D01*
X002696Y012832D01*
X002750Y012834D01*
X002803Y012840D01*
X002856Y012849D01*
X002909Y012862D01*
X002960Y012878D01*
X003011Y012897D01*
X003059Y012920D01*
X003107Y012945D01*
X003152Y012974D01*
X003196Y013006D01*
X003237Y013041D01*
X003276Y013078D01*
X003312Y013118D01*
X003305Y013124D01*
X003269Y013084D01*
X003231Y013047D01*
X003190Y013013D01*
X003147Y012982D01*
X003102Y012953D01*
X003055Y012928D01*
X003007Y012905D01*
X002957Y012886D01*
X002906Y012870D01*
X002855Y012858D01*
X002802Y012849D01*
X002749Y012843D01*
X002696Y012841D01*
X002696Y012850D01*
X002749Y012852D01*
X002801Y012858D01*
X002853Y012867D01*
X002904Y012879D01*
X002954Y012895D01*
X003004Y012914D01*
X003051Y012936D01*
X003098Y012961D01*
X003142Y012989D01*
X003184Y013020D01*
X003225Y013054D01*
X003263Y013091D01*
X003298Y013129D01*
X003292Y013135D01*
X003256Y013097D01*
X003219Y013061D01*
X003179Y013027D01*
X003137Y012997D01*
X003093Y012969D01*
X003047Y012944D01*
X003000Y012922D01*
X002951Y012903D01*
X002902Y012888D01*
X002851Y012875D01*
X002800Y012867D01*
X002748Y012861D01*
X002696Y012859D01*
X002696Y012868D01*
X002752Y012870D01*
X002807Y012877D01*
X002862Y012887D01*
X002916Y012901D01*
X002969Y012919D01*
X003020Y012941D01*
X003070Y012966D01*
X003118Y012995D01*
X003163Y013027D01*
X003206Y013062D01*
X003247Y013100D01*
X003285Y013141D01*
X003278Y013147D01*
X003241Y013106D01*
X003200Y013069D01*
X003158Y013034D01*
X003113Y013002D01*
X003065Y012974D01*
X003016Y012949D01*
X002965Y012927D01*
X002913Y012910D01*
X002860Y012896D01*
X002806Y012886D01*
X002751Y012879D01*
X002696Y012877D01*
X002696Y012886D01*
X002750Y012888D01*
X002805Y012894D01*
X002858Y012904D01*
X002911Y012918D01*
X002962Y012936D01*
X003012Y012957D01*
X003061Y012982D01*
X003108Y013010D01*
X003152Y013041D01*
X003194Y013075D01*
X003234Y013113D01*
X003271Y013153D01*
X003336Y014194D02*
X003267Y014137D01*
X003268Y014137D02*
X003231Y014177D01*
X003192Y014215D01*
X003150Y014249D01*
X003106Y014281D01*
X003060Y014309D01*
X003011Y014334D01*
X002961Y014355D01*
X002910Y014373D01*
X002857Y014386D01*
X002804Y014396D01*
X002750Y014403D01*
X002696Y014405D01*
X002695Y014494D01*
X002696Y014495D01*
X002752Y014493D01*
X002808Y014487D01*
X002863Y014477D01*
X002918Y014464D01*
X002971Y014447D01*
X003024Y014427D01*
X003075Y014403D01*
X003124Y014376D01*
X003171Y014345D01*
X003216Y014312D01*
X003259Y014276D01*
X003299Y014237D01*
X003337Y014195D01*
X003330Y014189D01*
X003293Y014230D01*
X003253Y014269D01*
X003211Y014305D01*
X003166Y014338D01*
X003119Y014368D01*
X003071Y014395D01*
X003020Y014418D01*
X002968Y014439D01*
X002915Y014455D01*
X002861Y014468D01*
X002807Y014478D01*
X002752Y014484D01*
X002696Y014486D01*
X002696Y014477D01*
X002751Y014475D01*
X002806Y014469D01*
X002860Y014460D01*
X002913Y014447D01*
X002965Y014430D01*
X003017Y014410D01*
X003066Y014387D01*
X003115Y014360D01*
X003161Y014331D01*
X003205Y014298D01*
X003247Y014262D01*
X003286Y014224D01*
X003323Y014183D01*
X003316Y014178D01*
X003280Y014218D01*
X003241Y014256D01*
X003199Y014291D01*
X003156Y014323D01*
X003110Y014353D01*
X003062Y014379D01*
X003013Y014402D01*
X002963Y014422D01*
X002911Y014438D01*
X002858Y014451D01*
X002804Y014460D01*
X002750Y014466D01*
X002696Y014468D01*
X002696Y014459D01*
X002750Y014457D01*
X002803Y014451D01*
X002856Y014442D01*
X002908Y014429D01*
X002960Y014413D01*
X003010Y014394D01*
X003058Y014371D01*
X003105Y014345D01*
X003151Y014316D01*
X003194Y014284D01*
X003235Y014249D01*
X003273Y014212D01*
X003309Y014172D01*
X003302Y014166D01*
X003267Y014205D01*
X003229Y014242D01*
X003188Y014277D01*
X003145Y014308D01*
X003101Y014337D01*
X003054Y014363D01*
X003006Y014385D01*
X002957Y014405D01*
X002906Y014421D01*
X002854Y014433D01*
X002802Y014442D01*
X002749Y014448D01*
X002696Y014450D01*
X002696Y014441D01*
X002748Y014439D01*
X002801Y014433D01*
X002852Y014424D01*
X002903Y014412D01*
X002954Y014396D01*
X003003Y014377D01*
X003050Y014355D01*
X003096Y014329D01*
X003140Y014301D01*
X003182Y014270D01*
X003223Y014236D01*
X003260Y014199D01*
X003295Y014160D01*
X003289Y014154D01*
X003254Y014193D01*
X003216Y014229D01*
X003177Y014263D01*
X003135Y014294D01*
X003091Y014322D01*
X003046Y014347D01*
X002999Y014369D01*
X002951Y014388D01*
X002901Y014403D01*
X002851Y014416D01*
X002800Y014424D01*
X002748Y014430D01*
X002696Y014432D01*
X002696Y014423D01*
X002747Y014421D01*
X002798Y014416D01*
X002849Y014407D01*
X002899Y014395D01*
X002948Y014379D01*
X002995Y014361D01*
X003042Y014339D01*
X003087Y014314D01*
X003130Y014286D01*
X003171Y014256D01*
X003210Y014223D01*
X003247Y014187D01*
X003282Y014149D01*
X003275Y014143D01*
X003238Y014184D01*
X003198Y014222D01*
X003156Y014256D01*
X003111Y014288D01*
X003064Y014317D01*
X003015Y014342D01*
X002964Y014363D01*
X002913Y014381D01*
X002859Y014395D01*
X002805Y014405D01*
X002751Y014412D01*
X002696Y014414D01*
X002201Y013263D02*
X002241Y013294D01*
X002240Y013293D02*
X002271Y013258D01*
X002304Y013225D01*
X002339Y013195D01*
X002378Y013168D01*
X002418Y013144D01*
X002460Y013124D01*
X002503Y013107D01*
X002548Y013093D01*
X002593Y013083D01*
X002639Y013077D01*
X002686Y013075D01*
X002687Y013026D01*
X002686Y013025D01*
X002640Y013027D01*
X002593Y013033D01*
X002548Y013042D01*
X002503Y013054D01*
X002459Y013070D01*
X002416Y013089D01*
X002375Y013111D01*
X002336Y013136D01*
X002299Y013163D01*
X002264Y013194D01*
X002231Y013227D01*
X002201Y013262D01*
X002208Y013268D01*
X002238Y013233D01*
X002270Y013200D01*
X002304Y013170D01*
X002341Y013143D01*
X002380Y013118D01*
X002420Y013097D01*
X002462Y013078D01*
X002505Y013063D01*
X002550Y013050D01*
X002595Y013042D01*
X002640Y013036D01*
X002686Y013034D01*
X002686Y013043D01*
X002641Y013045D01*
X002596Y013050D01*
X002552Y013059D01*
X002508Y013071D01*
X002466Y013086D01*
X002424Y013105D01*
X002384Y013126D01*
X002346Y013150D01*
X002310Y013177D01*
X002276Y013207D01*
X002244Y013239D01*
X002215Y013273D01*
X002222Y013279D01*
X002254Y013242D01*
X002288Y013208D01*
X002325Y013177D01*
X002365Y013149D01*
X002407Y013124D01*
X002450Y013103D01*
X002495Y013085D01*
X002542Y013071D01*
X002589Y013061D01*
X002638Y013054D01*
X002686Y013052D01*
X002686Y013061D01*
X002638Y013063D01*
X002591Y013070D01*
X002544Y013080D01*
X002498Y013093D01*
X002454Y013111D01*
X002411Y013132D01*
X002370Y013156D01*
X002331Y013184D01*
X002294Y013215D01*
X002260Y013248D01*
X002229Y013284D01*
X002236Y013290D01*
X002267Y013254D01*
X002300Y013221D01*
X002336Y013191D01*
X002375Y013164D01*
X002415Y013140D01*
X002458Y013119D01*
X002501Y013102D01*
X002546Y013088D01*
X002592Y013078D01*
X002639Y013072D01*
X002686Y013070D01*
X002695Y013026D02*
X002695Y013076D01*
X002696Y013075D02*
X002743Y013077D01*
X002789Y013083D01*
X002834Y013093D01*
X002879Y013107D01*
X002922Y013124D01*
X002964Y013144D01*
X003004Y013168D01*
X003043Y013195D01*
X003078Y013225D01*
X003111Y013258D01*
X003142Y013293D01*
X003181Y013263D01*
X003181Y013262D01*
X003151Y013227D01*
X003118Y013194D01*
X003083Y013163D01*
X003046Y013136D01*
X003007Y013111D01*
X002966Y013089D01*
X002923Y013070D01*
X002879Y013054D01*
X002834Y013042D01*
X002789Y013033D01*
X002742Y013027D01*
X002696Y013025D01*
X002696Y013034D01*
X002742Y013036D01*
X002787Y013042D01*
X002832Y013050D01*
X002877Y013063D01*
X002920Y013078D01*
X002962Y013097D01*
X003002Y013118D01*
X003041Y013143D01*
X003078Y013170D01*
X003112Y013200D01*
X003144Y013233D01*
X003174Y013268D01*
X003167Y013273D01*
X003138Y013239D01*
X003106Y013207D01*
X003072Y013177D01*
X003036Y013150D01*
X002998Y013126D01*
X002958Y013105D01*
X002916Y013086D01*
X002874Y013071D01*
X002830Y013059D01*
X002786Y013050D01*
X002741Y013045D01*
X002696Y013043D01*
X002696Y013052D01*
X002744Y013054D01*
X002793Y013061D01*
X002840Y013071D01*
X002887Y013085D01*
X002932Y013103D01*
X002975Y013124D01*
X003017Y013149D01*
X003057Y013177D01*
X003094Y013208D01*
X003128Y013242D01*
X003160Y013279D01*
X003153Y013284D01*
X003122Y013248D01*
X003088Y013215D01*
X003051Y013184D01*
X003012Y013156D01*
X002971Y013132D01*
X002928Y013111D01*
X002884Y013093D01*
X002838Y013080D01*
X002791Y013070D01*
X002744Y013063D01*
X002696Y013061D01*
X002696Y013070D01*
X002743Y013072D01*
X002790Y013078D01*
X002836Y013088D01*
X002881Y013102D01*
X002924Y013119D01*
X002967Y013140D01*
X003007Y013164D01*
X003046Y013191D01*
X003082Y013221D01*
X003115Y013254D01*
X003146Y013290D01*
X002687Y014274D02*
X002687Y014224D01*
X002686Y014225D02*
X002642Y014223D01*
X002599Y014218D01*
X002556Y014209D01*
X002514Y014197D01*
X002474Y014182D01*
X002434Y014164D01*
X002396Y014143D01*
X002359Y014120D01*
X002324Y014093D01*
X002292Y014064D01*
X002262Y014033D01*
X002234Y013999D01*
X002195Y014028D01*
X002194Y014029D01*
X002224Y014066D01*
X002257Y014100D01*
X002292Y014131D01*
X002330Y014160D01*
X002370Y014186D01*
X002411Y014209D01*
X002455Y014229D01*
X002499Y014245D01*
X002545Y014258D01*
X002591Y014267D01*
X002639Y014273D01*
X002686Y014275D01*
X002686Y014266D01*
X002639Y014264D01*
X002593Y014258D01*
X002547Y014249D01*
X002502Y014236D01*
X002458Y014220D01*
X002416Y014201D01*
X002375Y014178D01*
X002335Y014153D01*
X002298Y014125D01*
X002263Y014093D01*
X002231Y014060D01*
X002201Y014024D01*
X002208Y014018D01*
X002238Y014054D01*
X002270Y014087D01*
X002304Y014118D01*
X002341Y014146D01*
X002379Y014171D01*
X002420Y014193D01*
X002461Y014212D01*
X002505Y014228D01*
X002549Y014240D01*
X002594Y014249D01*
X002640Y014255D01*
X002686Y014257D01*
X002686Y014248D01*
X002641Y014246D01*
X002596Y014240D01*
X002551Y014231D01*
X002508Y014219D01*
X002465Y014204D01*
X002424Y014185D01*
X002384Y014163D01*
X002346Y014138D01*
X002310Y014111D01*
X002276Y014080D01*
X002244Y014048D01*
X002216Y014013D01*
X002223Y014007D01*
X002251Y014042D01*
X002282Y014074D01*
X002316Y014104D01*
X002351Y014131D01*
X002388Y014155D01*
X002428Y014177D01*
X002468Y014195D01*
X002510Y014211D01*
X002553Y014223D01*
X002597Y014231D01*
X002641Y014237D01*
X002686Y014239D01*
X002686Y014230D01*
X002642Y014228D01*
X002598Y014223D01*
X002555Y014214D01*
X002513Y014202D01*
X002472Y014187D01*
X002432Y014169D01*
X002393Y014148D01*
X002356Y014124D01*
X002321Y014097D01*
X002288Y014068D01*
X002258Y014036D01*
X002230Y014002D01*
X003196Y014017D02*
X003155Y013988D01*
X003156Y013988D02*
X003128Y014023D01*
X003098Y014056D01*
X003065Y014087D01*
X003030Y014114D01*
X002993Y014139D01*
X002954Y014161D01*
X002914Y014180D01*
X002872Y014196D01*
X002829Y014208D01*
X002785Y014217D01*
X002741Y014223D01*
X002696Y014225D01*
X002695Y014274D01*
X002696Y014275D01*
X002745Y014273D01*
X002793Y014267D01*
X002841Y014257D01*
X002887Y014243D01*
X002933Y014226D01*
X002977Y014206D01*
X003019Y014182D01*
X003060Y014155D01*
X003098Y014124D01*
X003134Y014091D01*
X003167Y014056D01*
X003197Y014017D01*
X003189Y014012D01*
X003160Y014050D01*
X003127Y014085D01*
X003092Y014118D01*
X003054Y014147D01*
X003015Y014174D01*
X002973Y014198D01*
X002929Y014218D01*
X002885Y014235D01*
X002838Y014248D01*
X002791Y014258D01*
X002744Y014264D01*
X002696Y014266D01*
X002696Y014257D01*
X002743Y014255D01*
X002790Y014249D01*
X002836Y014239D01*
X002882Y014226D01*
X002926Y014210D01*
X002969Y014190D01*
X003010Y014166D01*
X003049Y014140D01*
X003086Y014111D01*
X003121Y014079D01*
X003153Y014044D01*
X003182Y014007D01*
X003175Y014002D01*
X003146Y014038D01*
X003114Y014072D01*
X003080Y014104D01*
X003044Y014133D01*
X003005Y014159D01*
X002965Y014182D01*
X002922Y014201D01*
X002879Y014218D01*
X002834Y014231D01*
X002789Y014240D01*
X002742Y014246D01*
X002696Y014248D01*
X002696Y014239D01*
X002742Y014237D01*
X002787Y014231D01*
X002832Y014222D01*
X002876Y014209D01*
X002919Y014193D01*
X002961Y014174D01*
X003000Y014151D01*
X003038Y014126D01*
X003074Y014097D01*
X003108Y014066D01*
X003139Y014032D01*
X003167Y013996D01*
X003160Y013991D01*
X003132Y014027D01*
X003102Y014060D01*
X003068Y014090D01*
X003033Y014118D01*
X002996Y014144D01*
X002956Y014166D01*
X002916Y014185D01*
X002873Y014201D01*
X002830Y014213D01*
X002786Y014222D01*
X002741Y014228D01*
X002696Y014230D01*
M02*
